<mxfile host="app.diagrams.net" modified="2021-11-18T05:52:26.493Z" agent="5.0 (Macintosh; Intel Mac OS X 10_15_7) AppleWebKit/537.36 (KHTML, like Gecko) Chrome/95.0.4638.69 Safari/537.36" etag="Fl5wQdnuBj79qovUms5G" version="15.7.4" type="github">
  <diagram id="2wQ2xX9t7fMavfPnFAsF" name="第 1 页">
    <mxGraphModel dx="1350" dy="735" grid="1" gridSize="10" guides="1" tooltips="1" connect="1" arrows="1" fold="1" page="1" pageScale="1" pageWidth="827" pageHeight="1169" math="0" shadow="0">
      <root>
        <mxCell id="0" />
        <mxCell id="1" parent="0" />
        <mxCell id="pVF23_LTlH8yzdIeW48w-1" value="后台用户" style="rounded=1;whiteSpace=wrap;html=1;labelBackgroundColor=default;fontColor=#000000;" vertex="1" parent="1">
          <mxGeometry x="260" y="190" width="120" height="50" as="geometry" />
        </mxCell>
        <mxCell id="pVF23_LTlH8yzdIeW48w-2" value="" style="endArrow=none;dashed=1;html=1;rounded=0;fontColor=#000000;entryX=0.5;entryY=1;entryDx=0;entryDy=0;" edge="1" parent="1" target="pVF23_LTlH8yzdIeW48w-1">
          <mxGeometry width="50" height="50" relative="1" as="geometry">
            <mxPoint x="320" y="850" as="sourcePoint" />
            <mxPoint x="350" y="240" as="targetPoint" />
          </mxGeometry>
        </mxCell>
        <mxCell id="pVF23_LTlH8yzdIeW48w-3" value="" style="rounded=0;whiteSpace=wrap;html=1;labelBackgroundColor=default;fontColor=#000000;" vertex="1" parent="1">
          <mxGeometry x="297" y="350" width="40" height="400" as="geometry" />
        </mxCell>
        <mxCell id="pVF23_LTlH8yzdIeW48w-4" value="&lt;p class=&quot;MsoNormal&quot; style=&quot;margin: 0pt 0pt 0.0001pt ; text-align: justify&quot;&gt;&lt;font face=&quot;calibri&quot;&gt;&lt;span style=&quot;font-size: 14px&quot;&gt;sephora-mp-cms-service&lt;/span&gt;&lt;/font&gt;&lt;br&gt;&lt;/p&gt;" style="rounded=1;whiteSpace=wrap;html=1;labelBackgroundColor=default;fontColor=#000000;" vertex="1" parent="1">
          <mxGeometry x="815.5" y="190" width="190" height="50" as="geometry" />
        </mxCell>
        <mxCell id="pVF23_LTlH8yzdIeW48w-5" value="" style="endArrow=none;dashed=1;html=1;rounded=0;fontColor=#000000;entryX=0.5;entryY=1;entryDx=0;entryDy=0;startArrow=none;" edge="1" parent="1" source="pVF23_LTlH8yzdIeW48w-8">
          <mxGeometry width="50" height="50" relative="1" as="geometry">
            <mxPoint x="907.5" y="1806" as="sourcePoint" />
            <mxPoint x="907.5" y="240" as="targetPoint" />
          </mxGeometry>
        </mxCell>
        <mxCell id="pVF23_LTlH8yzdIeW48w-6" style="edgeStyle=orthogonalEdgeStyle;rounded=0;orthogonalLoop=1;jettySize=auto;html=1;entryX=0;entryY=0.5;entryDx=0;entryDy=0;fontColor=#000000;" edge="1" parent="1" target="pVF23_LTlH8yzdIeW48w-20">
          <mxGeometry relative="1" as="geometry">
            <mxPoint x="928" y="452" as="sourcePoint" />
          </mxGeometry>
        </mxCell>
        <mxCell id="pVF23_LTlH8yzdIeW48w-7" style="edgeStyle=orthogonalEdgeStyle;rounded=0;orthogonalLoop=1;jettySize=auto;html=1;fontColor=#000000;entryX=0;entryY=0.5;entryDx=0;entryDy=0;" edge="1" parent="1">
          <mxGeometry relative="1" as="geometry">
            <mxPoint x="1370" y="620" as="targetPoint" />
            <mxPoint x="930" y="620" as="sourcePoint" />
          </mxGeometry>
        </mxCell>
        <mxCell id="pVF23_LTlH8yzdIeW48w-8" value="" style="rounded=0;whiteSpace=wrap;html=1;labelBackgroundColor=default;fontColor=#000000;" vertex="1" parent="1">
          <mxGeometry x="893" y="350" width="35" height="380" as="geometry" />
        </mxCell>
        <mxCell id="pVF23_LTlH8yzdIeW48w-9" value="" style="endArrow=none;dashed=1;html=1;rounded=0;fontColor=#000000;entryX=0.5;entryY=1;entryDx=0;entryDy=0;" edge="1" parent="1" target="pVF23_LTlH8yzdIeW48w-8">
          <mxGeometry width="50" height="50" relative="1" as="geometry">
            <mxPoint x="911" y="850" as="sourcePoint" />
            <mxPoint x="907.5" y="240" as="targetPoint" />
          </mxGeometry>
        </mxCell>
        <mxCell id="pVF23_LTlH8yzdIeW48w-10" value="" style="endArrow=classic;html=1;rounded=0;fontColor=#000000;entryX=0;entryY=0;entryDx=0;entryDy=0;" edge="1" parent="1" target="pVF23_LTlH8yzdIeW48w-15">
          <mxGeometry width="50" height="50" relative="1" as="geometry">
            <mxPoint x="340" y="350" as="sourcePoint" />
            <mxPoint x="630" y="350" as="targetPoint" />
          </mxGeometry>
        </mxCell>
        <mxCell id="pVF23_LTlH8yzdIeW48w-11" value="&lt;span style=&quot;font-size: 12px&quot;&gt;v1/mpcms/management/position/campaign&lt;/span&gt;" style="text;html=1;strokeColor=none;fillColor=none;align=center;verticalAlign=middle;whiteSpace=wrap;rounded=0;labelBackgroundColor=#FFFFFF;fontColor=#000000;" vertex="1" parent="1">
          <mxGeometry x="390" y="324" width="165" height="30" as="geometry" />
        </mxCell>
        <mxCell id="pVF23_LTlH8yzdIeW48w-12" value="gateway" style="rounded=1;whiteSpace=wrap;html=1;labelBackgroundColor=default;fontColor=#000000;" vertex="1" parent="1">
          <mxGeometry x="577" y="190" width="120" height="50" as="geometry" />
        </mxCell>
        <mxCell id="pVF23_LTlH8yzdIeW48w-13" value="" style="endArrow=none;dashed=1;html=1;rounded=0;fontColor=#000000;entryX=0.5;entryY=1;entryDx=0;entryDy=0;" edge="1" parent="1">
          <mxGeometry width="50" height="50" relative="1" as="geometry">
            <mxPoint x="637" y="850" as="sourcePoint" />
            <mxPoint x="636.5" y="240" as="targetPoint" />
          </mxGeometry>
        </mxCell>
        <mxCell id="pVF23_LTlH8yzdIeW48w-14" style="edgeStyle=orthogonalEdgeStyle;rounded=0;orthogonalLoop=1;jettySize=auto;html=1;exitX=1;exitY=0;exitDx=0;exitDy=0;entryX=0;entryY=0;entryDx=0;entryDy=0;fontColor=#000000;" edge="1" parent="1">
          <mxGeometry relative="1" as="geometry">
            <Array as="points">
              <mxPoint x="790" y="366" />
              <mxPoint x="790" y="366" />
            </Array>
            <mxPoint x="657" y="366" as="sourcePoint" />
            <mxPoint x="893" y="366.00000000000045" as="targetPoint" />
          </mxGeometry>
        </mxCell>
        <mxCell id="pVF23_LTlH8yzdIeW48w-15" value="" style="rounded=0;whiteSpace=wrap;html=1;labelBackgroundColor=default;fontColor=#000000;" vertex="1" parent="1">
          <mxGeometry x="617" y="350" width="40" height="400" as="geometry" />
        </mxCell>
        <mxCell id="pVF23_LTlH8yzdIeW48w-16" value="v1/mpcms/management/position/campaign" style="text;html=1;align=center;verticalAlign=middle;resizable=0;points=[];autosize=1;strokeColor=none;fillColor=none;fontColor=#000000;" vertex="1" parent="1">
          <mxGeometry x="653" y="346" width="240" height="20" as="geometry" />
        </mxCell>
        <mxCell id="pVF23_LTlH8yzdIeW48w-17" value="验证数据" style="edgeStyle=orthogonalEdgeStyle;rounded=0;orthogonalLoop=1;jettySize=auto;html=1;exitX=1;exitY=0;exitDx=0;exitDy=0;fontColor=#000000;" edge="1" parent="1" source="pVF23_LTlH8yzdIeW48w-8">
          <mxGeometry relative="1" as="geometry">
            <mxPoint x="928" y="420" as="targetPoint" />
            <Array as="points">
              <mxPoint x="990" y="350" />
              <mxPoint x="990" y="420" />
              <mxPoint x="928" y="420" />
            </Array>
          </mxGeometry>
        </mxCell>
        <mxCell id="pVF23_LTlH8yzdIeW48w-18" value="DB" style="rounded=1;whiteSpace=wrap;html=1;labelBackgroundColor=default;fontColor=#000000;" vertex="1" parent="1">
          <mxGeometry x="1120" y="190" width="120" height="50" as="geometry" />
        </mxCell>
        <mxCell id="pVF23_LTlH8yzdIeW48w-19" value="" style="endArrow=none;dashed=1;html=1;rounded=0;fontColor=#000000;entryX=0.5;entryY=1;entryDx=0;entryDy=0;startArrow=none;" edge="1" parent="1">
          <mxGeometry width="50" height="50" relative="1" as="geometry">
            <mxPoint x="1179" y="850" as="sourcePoint" />
            <mxPoint x="1179.46" y="240" as="targetPoint" />
            <Array as="points">
              <mxPoint x="1179.96" y="290" />
            </Array>
          </mxGeometry>
        </mxCell>
        <mxCell id="pVF23_LTlH8yzdIeW48w-20" value="" style="rounded=0;whiteSpace=wrap;html=1;labelBackgroundColor=default;fontColor=#000000;" vertex="1" parent="1">
          <mxGeometry x="1160" y="377" width="40" height="150" as="geometry" />
        </mxCell>
        <mxCell id="pVF23_LTlH8yzdIeW48w-21" value="写入DB" style="text;html=1;align=center;verticalAlign=middle;resizable=0;points=[];autosize=1;strokeColor=none;fillColor=none;fontColor=#000000;" vertex="1" parent="1">
          <mxGeometry x="1030" y="427" width="60" height="20" as="geometry" />
        </mxCell>
        <mxCell id="pVF23_LTlH8yzdIeW48w-22" value="Redis" style="rounded=1;whiteSpace=wrap;html=1;labelBackgroundColor=default;fontColor=#000000;" vertex="1" parent="1">
          <mxGeometry x="1330" y="190" width="120" height="50" as="geometry" />
        </mxCell>
        <mxCell id="pVF23_LTlH8yzdIeW48w-23" value="" style="endArrow=none;dashed=1;html=1;rounded=0;fontColor=#000000;entryX=0.5;entryY=1;entryDx=0;entryDy=0;startArrow=none;" edge="1" parent="1" source="pVF23_LTlH8yzdIeW48w-24">
          <mxGeometry width="50" height="50" relative="1" as="geometry">
            <mxPoint x="1389" y="780" as="sourcePoint" />
            <mxPoint x="1389.46" y="240" as="targetPoint" />
            <Array as="points" />
          </mxGeometry>
        </mxCell>
        <mxCell id="pVF23_LTlH8yzdIeW48w-24" value="" style="rounded=0;whiteSpace=wrap;html=1;labelBackgroundColor=default;fontColor=#000000;" vertex="1" parent="1">
          <mxGeometry x="1370" y="540" width="40" height="170" as="geometry" />
        </mxCell>
        <mxCell id="pVF23_LTlH8yzdIeW48w-25" value="" style="endArrow=none;dashed=1;html=1;rounded=0;fontColor=#000000;entryX=0.5;entryY=1;entryDx=0;entryDy=0;startArrow=none;" edge="1" parent="1" target="pVF23_LTlH8yzdIeW48w-24">
          <mxGeometry width="50" height="50" relative="1" as="geometry">
            <mxPoint x="1390" y="850" as="sourcePoint" />
            <mxPoint x="1389.46" y="240" as="targetPoint" />
            <Array as="points" />
          </mxGeometry>
        </mxCell>
        <mxCell id="pVF23_LTlH8yzdIeW48w-26" value="写入缓存" style="text;html=1;align=center;verticalAlign=middle;resizable=0;points=[];autosize=1;strokeColor=none;fillColor=none;fontColor=#000000;" vertex="1" parent="1">
          <mxGeometry x="1040" y="600" width="60" height="20" as="geometry" />
        </mxCell>
        <mxCell id="pVF23_LTlH8yzdIeW48w-27" value="" style="endArrow=block;dashed=1;endFill=0;endSize=12;html=1;rounded=0;fontColor=#000000;exitX=0;exitY=1;exitDx=0;exitDy=0;" edge="1" parent="1" source="pVF23_LTlH8yzdIeW48w-24">
          <mxGeometry width="160" relative="1" as="geometry">
            <mxPoint x="1360" y="680" as="sourcePoint" />
            <mxPoint x="930" y="710" as="targetPoint" />
          </mxGeometry>
        </mxCell>
        <mxCell id="pVF23_LTlH8yzdIeW48w-28" value="" style="endArrow=block;dashed=1;endFill=0;endSize=12;html=1;rounded=0;fontColor=#000000;exitX=0;exitY=1;exitDx=0;exitDy=0;" edge="1" parent="1">
          <mxGeometry width="160" relative="1" as="geometry">
            <mxPoint x="892" y="709" as="sourcePoint" />
            <mxPoint x="660" y="709" as="targetPoint" />
          </mxGeometry>
        </mxCell>
        <mxCell id="pVF23_LTlH8yzdIeW48w-29" value="" style="endArrow=block;dashed=1;endFill=0;endSize=12;html=1;rounded=0;fontColor=#000000;exitX=0;exitY=1;exitDx=0;exitDy=0;" edge="1" parent="1">
          <mxGeometry width="160" relative="1" as="geometry">
            <mxPoint x="1159" y="527" as="sourcePoint" />
            <mxPoint x="930" y="527" as="targetPoint" />
          </mxGeometry>
        </mxCell>
        <mxCell id="pVF23_LTlH8yzdIeW48w-30" value="" style="endArrow=block;dashed=1;endFill=0;endSize=12;html=1;rounded=0;fontColor=#000000;exitX=0;exitY=1;exitDx=0;exitDy=0;entryX=1.028;entryY=0.901;entryDx=0;entryDy=0;entryPerimeter=0;" edge="1" parent="1" target="pVF23_LTlH8yzdIeW48w-3">
          <mxGeometry width="160" relative="1" as="geometry">
            <mxPoint x="617" y="710" as="sourcePoint" />
            <mxPoint x="385" y="710" as="targetPoint" />
          </mxGeometry>
        </mxCell>
      </root>
    </mxGraphModel>
  </diagram>
</mxfile>
